<svg xmlns="http://www.w3.org/2000/svg" viewBox="0 0 496.2 496.2" style="enable-background:new 0 0 496.2 496.2" xml:space="preserve"><path style="fill:#e04f5f" d="M496.2 248.1C496.2 111.1 385.1 0 248.1 0S0 111.1 0 248.1s111.1 248.1 248.1 248.1 248.1-111.1 248.1-248.1z"/><path style="fill:#ccab81" d="M188.9 100.7h118.4v42.2H188.9z"/><path style="fill:#cccac6" d="M359.7 112.7h24.5V131h-24.5z"/><path style="fill:#ccab81" d="m307.3 142.9 15.8-8.5v-25.3l-15.8-8.4z"/><path style="fill:#ddbf9e" d="m336.1 139.3-13.5-4.9v-25.3l13.5-4.8z"/><path style="fill:#ccab81" d="m336.1 139.3 24.4-6.2v-22.7l-24.4-6.1zM431.8 195.3s-3.7 13.7-41.6 13.7-43.5-13.7-43.5-13.7v-28s22.8-13.7 43.5-13.7 41.6 13.7 41.6 13.7v28z"/><path style="fill:#e2e2e2" d="M423.7 169.1s-3 11.1-33.7 11.1-35.2-11.1-35.2-11.1v-22.6s14.9-8.3 34.8-8.3 34.2 8.3 34.2 8.3v22.6h-.1z"/><path style="fill:#cccac6" d="M423.7 169.1s-3 11.1-33.7 11.1-35.2-11.1-35.2-11.1v-22.6s9.3 10.3 34.8 10.3 34.2-10.3 34.2-10.3v22.6h-.1z"/><path style="fill:#cccac6" d="M380.5 144.6v-37.8h18.3v37.8s-4 2.3-8.8 2.3c-4.7-.1-9.5-2.3-9.5-2.3z"/><path style="fill:#cccac6" d="M407.3 120.4c0 8.2-6.7 14.9-14.9 14.9h-5.3c-8.2 0-14.9-6.7-14.9-14.9v-.9c0-8.2 6.7-14.9 14.9-14.9h5.3c8.2 0 14.9 6.7 14.9 14.9v.9z"/><path style="fill:#cccac6" d="M395.7 106.5c0 2.8-2.3 5.1-5.1 5.1h-1.8c-2.8 0-5.1-2.3-5.1-5.1v-.4c0-2.8 2.3-5.1 5.1-5.1h1.8c2.8 0 5.1 2.3 5.1 5.1v.4z"/><path style="fill:#ccab81" d="m189.4 142.9-15.7-8.5v-25.3l15.7-8.4z"/><path style="fill:#ddbf9e" d="m160.6 139.3 13.6-4.9v-25.3l-13.6-4.8z"/><path style="fill:#ccab81" d="M120.2 193.4s.2 25.6 31.8 10.4l6.8-6.2 2.8 5.4-12.6 70-2.9 1.6-9.9-13.3s-43.6-28.9-42.8-67.8h26.8v-.1z"/><path style="fill:#b69562" d="M168.7 198.3s6.2 5.4.5 39.7c-5.8 34.3-13.4 37.4-13.4 37.4l-9.7-.8 12.9-77.1 9.7.8z"/><path style="fill:#cccac6" d="M112 112.7h26.8V131H112z"/><path style="fill:#e2e2e2" d="M75.2 174.4s-5.7 20.7 30.9 20.7 32.7-20.7 32.7-20.7l9.3-15.1s-17.8-16.4-41.5-16.4-40.7 16.4-40.7 16.4l9.3 15.1z"/><path style="fill:#cccac6" d="M65.9 174.4s3.6 11.1 40.2 11.1 42-11.1 42-11.1v-15.1s-11.1 10.3-41.5 10.3-40.7-10.3-40.7-10.3v15.1zM115.7 144.6v-37.8H97.4v37.8s4 2.3 8.8 2.3c4.7-.1 9.5-2.3 9.5-2.3z"/><path style="fill:#cccac6" d="M89 120.4c0 8.2 6.7 14.9 14.9 14.9h5.3c8.2 0 14.9-6.7 14.9-14.9v-.9c0-8.2-6.7-14.9-14.9-14.9h-5.3c-8.2 0-14.9 6.7-14.9 14.9v.9z"/><path style="fill:#cccac6" d="M100.6 106.5c0 2.8 2.3 5.1 5.1 5.1h1.8c2.8 0 5.1-2.3 5.1-5.1v-.4c0-2.8-2.3-5.1-5.1-5.1h-1.8c-2.8 0-5.1 2.3-5.1 5.1v.4z"/><path style="fill:#ccab81" d="m160.6 139.3-24.3-6.2v-22.7l24.3-6.1z"/><path style="fill:#3a3a38" d="m325.1 180.1 4.6-65.4c0-.7-.6-1.2-1.3-1.2h-5.3c-.4 0-.7.1-.9.4-.3.2-.4.5-.4.9l-7.8 65.8c0 .3.2 6.4-4 10.8-3.1 3.2-7.9 4.8-14.4 4.8h-94c-6.5 0-11.4-1.6-14.4-4.8-4.2-4.4-4-10.6-4-10.9l-7.1-65.8c0-.3-.1-.6-.4-.9-.3-.2-.6-.4-.9-.4l-5.6-.2c-.7 0-1.3.6-1.3 1.2l4.2 65.6c-.1 1.8 0 11.4 7 18.9 5.3 5.6 12.9 8.4 22.6 8.4h94c9.7 0 17.3-2.8 22.6-8.4 6.8-7.4 6.9-17 6.8-18.8z"/><ellipse style="fill:#3a3a38" cx="248.6" cy="379.4" rx="103.4" ry="52.2"/><path style="fill:#3a3a38" d="M145.2 364.1H352V380H145.2z"/><ellipse style="fill:#b69562" cx="248.6" cy="364.5" rx="103.4" ry="52.2"/><path style="fill:#b69562" d="M145.2 344.8H352v19.6H145.2z"/><path style="fill:#545454" d="M258.8 223.7c0-5.9-4.1-9.9-4.1-9.9h-12.6s-4.1 4.1-4.1 9.9c0 37.3-21.3 62.9-21.3 62.9h63.4s-21.3-25.7-21.3-62.9z"/><circle style="fill:#545454" cx="248.4" cy="204.6" r="15.5"/><ellipse style="fill:#ccab81" cx="248.6" cy="344.6" rx="103.4" ry="52.2"/><path style="fill:#b69562" d="M181.5 337c0-30.7 30-55.6 67.1-55.6 37 0 67.1 24.9 67.1 55.6 0 40.3-30 55.6-67.1 55.6-37 0-67.1-15.2-67.1-55.6z"/><path style="fill:#373c36" d="M181.5 328.8c0-30.4 30-55 67.1-55 37 0 67.1 24.6 67.1 55 0 41.2-30 55-67.1 55-37 0-67.1-13.8-67.1-55z"/><ellipse style="fill:#b69562" cx="248.6" cy="325.1" rx="67.1" ry="51.3"/><ellipse style="fill:#ccab81" cx="248.6" cy="320.6" rx="67.1" ry="46.8"/><path style="fill:#896f4c" d="M204.4 293.1c0-4.7 3.8-8.5 8.5-8.5s8.5 3.8 8.5 8.5-3.8 8.5-8.5 8.5c-4.7-.1-8.5-3.9-8.5-8.5z"/><circle style="fill:#896f4c" cx="235.6" cy="285.9" r="8.5"/><path style="fill:#896f4c" d="M257.8 287.1c0-4.7 3.8-8.5 8.5-8.5s8.5 3.8 8.5 8.5-3.8 8.5-8.5 8.5-8.5-3.8-8.5-8.5z"/><circle style="fill:#896f4c" cx="248.6" cy="357" r="9.1"/><path style="fill:#896f4c" d="M213.1 352.4c0-5 4.1-9.1 9.1-9.1s9.1 4.1 9.1 9.1-4.1 9.1-9.1 9.1c-5-.1-9.1-4.1-9.1-9.1z"/><circle style="fill:#896f4c" cx="201.1" cy="337.5" r="9.1"/><circle style="fill:#896f4c" cx="195.8" cy="312.6" r="8.5"/><circle style="fill:#896f4c" cx="284.9" cy="293.1" r="8.5"/><circle style="fill:#896f4c" cx="275" cy="352.4" r="9.1"/><path style="fill:#896f4c" d="M305.2 337.5c0-5-4.1-9.1-9.1-9.1s-9.1 4.1-9.1 9.1 4.1 9.1 9.1 9.1c5.1-.1 9.1-4.1 9.1-9.1z"/><circle style="fill:#896f4c" cx="302.3" cy="312.6" r="8.5"/><ellipse style="fill:#b69562" cx="248.6" cy="311.9" rx="45.7" ry="35"/><ellipse style="fill:#ccab81" cx="248.6" cy="308.8" rx="45.7" ry="31.9"/><path style="fill:#3a3a38" d="M212.4 308.8c0-13.9 16.2-25.3 36.2-25.3s36.2 11.3 36.2 25.3c0 13.9-16.2 25.3-36.2 25.3s-36.2-11.3-36.2-25.3z"/><ellipse style="fill:#ccab81" cx="248.6" cy="306.9" rx="23.4" ry="16.4"/><ellipse style="fill:#e5dee5" cx="248.6" cy="306.9" rx="19.5" ry="13.6"/></svg>