<svg xmlns="http://www.w3.org/2000/svg" viewBox="0 0 512 512" style="enable-background:new 0 0 512 512" xml:space="preserve"><path style="fill:#b3404a" d="M60.761 139.885c-7.81 0-14.144-6.332-14.144-14.144V60.76c0-7.812 6.334-14.144 14.144-14.144h64.979c7.81 0 14.144 6.332 14.144 14.144s-6.334 14.144-14.144 14.144H74.905v50.837c0 7.812-6.334 14.144-14.144 14.144zM451.239 465.384H386.26c-7.81 0-14.144-6.332-14.144-14.144s6.334-14.144 14.144-14.144h50.835V386.26c0-7.812 6.334-14.144 14.144-14.144 7.81 0 14.144 6.332 14.144 14.144v64.98c0 7.81-6.333 14.144-14.144 14.144z"/><path style="fill:#b3404a" d="M497.856 512H14.144C6.334 512 0 505.668 0 497.856V14.144C0 6.332 6.334 0 14.144 0h483.713C505.667 0 512 6.332 512 14.144v483.713c0 7.811-6.333 14.143-14.144 14.143zM28.287 483.713h455.425V28.287H28.287v455.426z"/><path style="fill:#f4b2b0" d="M381.284 287.704c14.801-74.123 30.453-161.767 28.651-164.857-3.164-5.423-308.01 115.071-308.01 115.071l78.84 41.548s33.373 88.478 39.273 89.968c4.228 1.068 47.653-37.812 47.653-37.812l90.334 57.706m-83.955-141.92-34.571 52.435-21.93-52.487 139.558-61.366-83.057 61.418z"/><path style="fill:#b3404a" d="M358.008 403.476c-2.605 0-5.242-.72-7.601-2.226l-81.349-51.967a1034.178 1034.178 0 0 1-14.501 12.465c-23.814 20.053-29.849 23.453-37.983 21.401-7.707-1.946-11.574-8.652-17.986-22.43-3.6-7.732-8.143-18.327-13.502-31.492-6.475-15.907-12.636-31.87-15.644-39.737L95.33 250.432a14.143 14.143 0 0 1 1.396-25.665c.762-.301 77.151-30.485 152.944-59.618 44.561-17.128 80.217-30.553 105.98-39.902 15.411-5.594 27.461-9.79 35.816-12.475 4.793-1.54 8.44-2.61 11.151-3.267 9.25-2.243 15.82-.153 19.537 6.219 3.079 5.277 3.906 6.696-6.387 65.359-5.58 31.809-13.287 72.703-20.61 109.391-1.529 7.66-8.983 12.629-16.64 11.101-7.66-1.53-12.63-8.98-11.101-16.64 11.96-59.901 21.954-115.395 26.255-143.17-45.255 15.318-166.558 62.115-257.884 98.011l51.572 27.178a14.139 14.139 0 0 1 6.639 7.52c10.417 27.614 23.162 59.181 30.644 75.233 8.94-7.072 22.282-18.479 33.615-28.624a14.146 14.146 0 0 1 17.049-1.382l90.334 57.707c6.582 4.205 8.51 12.95 4.304 19.534-2.701 4.226-7.268 6.532-11.936 6.534zm-118.507-89.49a14.14 14.14 0 0 1-13.053-8.691l-21.93-52.487c-2.973-7.113.3-15.296 7.356-18.399l139.558-61.366c6.592-2.899 14.313-.38 17.929 5.853a14.14 14.14 0 0 1-3.826 18.467l-81.039 59.927-33.191 50.34a14.142 14.142 0 0 1-11.804 6.356zm-3.528-59.272 6.338 15.17 16.673-25.289-23.011 10.119z"/></svg>